<?xml version="1.0" standalone="no"?>
<!DOCTYPE svg PUBLIC "-//W3C//DTD SVG 20010904//EN"
 "http://www.w3.org/TR/2001/REC-SVG-20010904/DTD/svg10.dtd">
<svg version="1.0" xmlns="http://www.w3.org/2000/svg"
 width="700.000000pt" height="700.000000pt" viewBox="0 0 700.000000 700.000000"
 preserveAspectRatio="xMidYMid meet">
<metadata>
Created by potrace 1.11, written by Peter Selinger 2001-2013
</metadata>
<g transform="translate(0.000000,700.000000) scale(0.100000,-0.100000)"
fill="#000000" stroke="none">
<path d="M3278 6995 c-1 -1 -41 -5 -88 -9 -87 -7 -105 -9 -225 -27 -116 -18
-123 -19 -192 -35 -154 -34 -203 -47 -313 -81 -258 -79 -582 -228 -815 -373
-533 -334 -981 -825 -1266 -1387 -129 -255 -252 -595 -294 -814 -3 -13 -14
-69 -25 -124 -42 -211 -55 -370 -55 -650 0 -194 7 -329 20 -406 2 -13 6 -46 9
-74 9 -78 23 -156 51 -285 31 -142 110 -393 174 -554 48 -119 163 -349 230
-461 341 -566 815 -1015 1391 -1318 240 -126 611 -262 853 -313 101 -21 216
-41 277 -49 25 -3 56 -7 69 -10 135 -26 700 -26 839 0 16 3 104 15 147 20 206
27 586 139 837 249 128 55 320 153 370 188 14 10 29 18 32 18 4 0 12 5 19 10
7 6 67 47 134 91 227 150 468 359 653 568 36 41 70 79 75 85 25 26 146 188
197 261 111 159 242 392 312 555 16 36 36 83 46 105 54 123 147 418 176 560
16 77 54 301 60 350 4 33 9 76 11 95 8 70 10 517 3 595 -13 133 -21 202 -26
227 -2 13 -7 46 -10 73 -4 28 -8 53 -10 56 -2 4 -6 24 -10 45 -3 22 -21 100
-39 174 -179 718 -583 1360 -1165 1848 -66 56 -304 230 -351 257 -336 195
-518 282 -769 366 -168 56 -420 117 -550 134 -19 3 -46 7 -60 10 -13 2 -54 7
-90 11 -36 3 -78 8 -95 11 -33 5 -531 13 -537 8z m567 -239 c114 -13 357 -56
450 -80 422 -107 826 -300 1170 -559 44 -33 82 -63 85 -67 3 -3 19 -16 35 -29
85 -65 281 -255 386 -376 117 -133 280 -362 368 -515 124 -217 259 -541 316
-760 9 -36 19 -72 21 -80 11 -40 53 -250 58 -290 3 -25 8 -56 11 -70 13 -68
19 -197 20 -420 0 -211 -9 -422 -20 -440 -1 -3 -6 -27 -9 -55 -29 -219 -126
-571 -207 -752 -10 -24 -19 -45 -19 -48 0 -12 -115 -244 -158 -320 -48 -84
-178 -287 -204 -320 -9 -11 -54 -67 -99 -125 -87 -110 -336 -368 -417 -432
-26 -21 -63 -51 -82 -68 -63 -54 -252 -186 -370 -257 -101 -61 -378 -203 -395
-203 -3 0 -25 -8 -48 -19 -111 -50 -386 -137 -496 -158 -14 -2 -28 -6 -31 -8
-12 -7 -304 -55 -386 -62 -166 -16 -635 -9 -754 12 -14 3 -41 7 -60 10 -573
88 -1099 318 -1555 681 -149 119 -419 392 -535 542 -241 312 -470 751 -551
1057 -4 17 -19 72 -33 122 -25 90 -60 256 -71 338 -3 23 -7 50 -9 60 -31 168
-29 698 4 895 5 30 11 72 15 93 9 67 52 258 69 312 1 6 6 24 10 40 5 17 22 71
38 120 124 367 292 682 526 985 36 47 69 87 72 90 3 3 23 25 44 50 120 139
296 306 444 422 48 37 92 72 97 76 72 58 277 183 430 262 317 163 711 290
1018 326 29 4 54 8 57 9 3 2 44 7 90 10 47 4 87 9 89 11 6 6 529 -3 586 -10z"/>
<path d="M3218 6565 c-2 -2 -50 -6 -108 -10 -58 -4 -108 -11 -111 -17 -4 -6
-8 -54 -9 -107 -1 -53 -3 -127 -5 -166 -2 -38 -6 -153 -10 -255 -4 -102 -8
-215 -10 -251 l-3 -66 47 8 c26 4 72 10 101 13 29 3 55 8 57 9 1 2 5 62 8 133
14 390 17 449 19 451 0 1 26 -53 55 -120 92 -206 121 -271 133 -294 11 -23 22
-25 143 -25 14 0 30 0 35 1 6 1 19 20 29 44 119 268 181 398 182 377 0 -14 3
-77 5 -140 10 -238 12 -287 13 -356 l1 -71 91 -12 c50 -7 96 -13 103 -14 12
-2 13 43 2 333 -3 102 -9 255 -12 340 -3 85 -7 160 -9 166 -2 7 -44 14 -102
19 -54 4 -117 9 -141 11 -37 4 -44 1 -51 -18 -5 -13 -48 -117 -95 -233 -47
-115 -86 -216 -86 -223 0 -22 -17 -4 -25 25 -3 15 -15 45 -25 68 -9 22 -48
115 -85 208 -37 92 -70 168 -74 169 -12 3 -61 5 -63 3z"/>
<path d="M5219 6018 c-7 -13 -40 -66 -74 -118 -34 -52 -111 -171 -170 -265
-59 -93 -125 -196 -146 -227 -22 -31 -39 -61 -39 -65 0 -8 138 -128 167 -146
8 -5 88 31 221 99 114 59 214 112 222 118 12 9 13 8 4 -4 -6 -8 -46 -82 -89
-165 -43 -82 -92 -176 -108 -207 -28 -52 -29 -59 -15 -75 8 -10 41 -49 73 -88
32 -38 61 -71 65 -73 3 -1 73 40 156 92 82 52 240 151 351 221 l203 127 -62
75 c-34 40 -65 76 -70 79 -9 6 -80 -38 -320 -197 -82 -54 -148 -97 -148 -96 0
1 47 93 103 204 l103 201 -32 34 c-17 18 -49 50 -71 71 l-39 37 -206 -102
-205 -103 36 54 c20 30 89 133 154 230 l117 176 -42 38 c-24 20 -62 51 -85 67
l-42 31 -12 -23z"/>
<path d="M1527 5866 c-97 -36 -233 -173 -554 -557 -12 -15 -7 -23 39 -67 118
-112 161 -152 278 -262 67 -63 157 -147 199 -187 l76 -72 23 26 c27 32 115
126 311 331 80 85 159 174 175 199 35 52 55 124 50 171 -9 73 -80 163 -142
179 -35 9 -110 10 -142 1 -25 -7 -25 -6 -25 56 -1 75 -30 129 -90 166 -46 28
-144 36 -198 16z m140 -195 c32 -42 5 -99 -97 -206 -32 -33 -98 -102 -147
-154 l-90 -94 -58 55 -59 56 63 73 c113 132 274 289 306 298 32 9 62 -1 82
-28z m253 -201 c25 -25 26 -66 2 -102 -16 -25 -97 -113 -287 -314 l-60 -63
-62 57 -62 58 187 192 c177 182 189 192 225 192 24 0 44 -7 57 -20z"/>
<path d="M3447 5574 c-1 -1 -47 -4 -102 -7 -483 -29 -958 -247 -1310 -602
-105 -105 -112 -113 -186 -210 -151 -197 -273 -442 -344 -689 -14 -49 -28
-103 -31 -120 -3 -17 -9 -49 -14 -72 -5 -22 -12 -67 -16 -99 -3 -32 -8 -68
-10 -79 -6 -26 -6 -362 0 -396 2 -14 7 -49 11 -79 4 -30 9 -63 11 -75 2 -12 7
-34 10 -51 28 -160 113 -399 199 -561 300 -565 852 -969 1465 -1073 36 -6 79
-13 95 -16 38 -6 216 -18 275 -19 54 0 247 13 275 18 11 2 40 7 65 11 25 4 54
9 65 11 11 3 40 9 65 14 25 5 90 23 144 40 365 113 695 328 956 625 193 220
360 537 436 828 29 110 53 247 60 342 11 146 6 358 -12 470 -38 242 -90 415
-185 613 -167 347 -432 645 -759 855 -188 120 -468 235 -665 273 -11 2 -42 8
-70 14 -62 12 -100 18 -190 25 -72 6 -234 13 -238 9z m298 -129 c53 -9 89 -15
110 -19 11 -2 38 -6 60 -10 119 -21 328 -96 475 -171 316 -162 587 -411 777
-716 45 -72 136 -250 148 -289 4 -14 13 -38 20 -55 24 -54 62 -188 83 -290 25
-119 30 -157 38 -292 l7 -103 -982 0 -981 0 0 -981 0 -981 -102 6 c-393 22
-761 156 -1073 390 -303 228 -528 528 -660 881 -41 110 -89 290 -100 374 -4
30 -9 63 -11 75 -2 12 -7 69 -10 129 l-7 107 982 0 981 0 0 981 0 982 108 -7
c59 -3 121 -8 137 -11z"/>
</g>
</svg>
